<?xml version="1.0" standalone="no"?>
<!DOCTYPE svg PUBLIC "-//W3C//DTD SVG 20010904//EN"
 "http://www.w3.org/TR/2001/REC-SVG-20010904/DTD/svg10.dtd">
<svg version="1.0" xmlns="http://www.w3.org/2000/svg"
 width="512.000000pt" height="512.000000pt" viewBox="0 0 512.000000 512.000000"
 preserveAspectRatio="xMidYMid meet">
<metadata>
Created by potrace 1.14, written by Peter Selinger 2001-2017
</metadata>
<g transform="translate(0.000000,512.000000) scale(0.100000,-0.100000)"
fill="#000000" stroke="none">
<path d="M754 2965 l0 -2157 871 5 c478 2 879 6 890 9 11 3 52 9 90 12 507 49
893 218 1189 521 82 83 246 290 246 310 0 2 13 23 29 47 16 24 52 88 80 143
160 319 235 660 235 1065 -1 797 -322 1453 -894 1829 -229 151 -557 274 -815
306 -27 4 -57 8 -65 10 -8 2 -40 7 -70 10 -30 3 -66 8 -80 10 -14 2 -68 7
-120 11 -52 3 -111 8 -130 11 -19 2 -355 7 -745 10 l-711 5 0 -2157z m1296
1721 c19 -2 81 -7 137 -11 57 -3 111 -8 120 -9 10 -2 47 -7 83 -10 36 -4 77
-9 90 -11 14 -3 54 -10 90 -15 188 -30 434 -113 552 -187 21 -13 40 -23 43
-23 7 0 140 -90 179 -122 203 -162 383 -415 481 -675 29 -76 80 -264 90 -333
4 -25 9 -53 11 -63 18 -99 24 -386 10 -542 -13 -145 -45 -296 -92 -430 -154
-440 -482 -768 -911 -911 -143 -48 -334 -83 -548 -99 -44 -4 -102 -8 -130 -11
-27 -2 -283 -7 -567 -11 l-518 -6 0 1743 0 1743 423 -7 c232 -3 438 -8 457
-10z"/>
<path d="M4 2155 l0 -2155 1803 0 c1710 0 1803 1 1804 18 3 54 4 379 1 390 -3
9 -330 12 -1588 12 l-1584 0 0 58 c-1 31 -1 906 -1 1945 l-1 1887 -217 0 -217
0 0 -2155z"/>
</g>
</svg>
