<?xml version="1.0" encoding="UTF-8" standalone="no"?>
<!-- Created with Inkscape (http://www.inkscape.org/) -->

<svg
   width="105.3338mm"
   height="105.3338mm"
   viewBox="0 0 105.3338 105.3338"
   version="1.1"
   id="svg5"
   xmlns="http://www.w3.org/2000/svg"
   xmlns:svg="http://www.w3.org/2000/svg">
  <defs
     id="defs2" />
  <g
     id="layer1"
     transform="translate(-24.990947,-51.840747)">
    <g
       id="layer1-6"
       transform="translate(-36.381509,-25.228497)">
      <path
         style="fill:#000000;stroke-width:0.264583"
         id="path59"
         d="" />
      <path
         style="fill:#000000;stroke-width:0.264583"
         id="path21"
         d="" />
      <rect
         style="fill:#f2f2f2;stroke-width:0.264583"
         id="rect293"
         width="105.3338"
         height="105.3338"
         x="61.372456"
         y="77.069244" />
      <path
         style="fill:#e6e6e6;stroke-width:0.264583"
         d="m 92.092337,161.41293 c -1.86947,-0.52146 -3.88985,-1.73079 -5.00157,-2.99378 -2.14255,-2.43406 -2.80499,-5.04476 -2.55785,-10.08053 0.60576,-12.34292 4.68691,-19.68676 11.76808,-21.17614 2.446531,-0.51458 2.990941,-0.40541 5.213373,1.04541 4.49081,2.93163 7.5979,4.13249 11.38622,4.40065 4.13734,0.29288 8.04557,-0.90657 12.74062,-3.91014 3.0559,-1.95495 3.38172,-2.0409 5.93253,-1.56484 6.40843,1.196 10.52179,7.70756 11.62435,18.40169 0.42731,4.1446 0.22477,8.01234 -0.5216,9.96068 -0.83628,2.18303 -2.55793,3.96681 -4.98796,5.16797 l -2.01578,0.99639 -21.18067,0.0463 c -16.560842,0.0362 -21.446563,-0.0278 -22.399743,-0.2937 z M 110.00691,129.372 c -2.88872,-0.7281 -4.8755,-1.90615 -7.32698,-4.3445 -3.484112,-3.46543 -4.729452,-6.42875 -4.735172,-11.26735 -0.006,-4.87243 1.25641,-7.98077 4.626652,-11.39391 1.60094,-1.62133 2.60087,-2.380097 4.10146,-3.112287 6.27756,-3.063022 13.3642,-2.00227 18.35245,2.747057 2.98013,2.8374 4.42746,5.68897 4.94246,9.73774 0.3028,2.38062 -0.0353,5.46948 -0.83178,7.59816 -1.5932,4.25822 -5.81055,8.33305 -10.02771,9.68885 -2.26426,0.72795 -6.88894,0.90389 -9.10138,0.34624 z"
         id="path171" />
    </g>
  </g>
</svg>
